<svg xmlns="http://www.w3.org/2000/svg" data-name="Layer 1" viewBox="0 0 64 64"><path fill="#ce93d8" d="M61.98,57.62c.46663,3.58788-4.303,5.88628-6.81006,3.20976L46,51.66c-3.65856-3.57863,1.88974-9.304,5.57025-5.73974C52.81687,47.61546,62.19569,55.31311,61.98,57.62Z"/><path fill="#fff" d="M57,29.5a27.39477,27.39477,0,0,1-5.43,16.42,28.01194,28.01194,0,0,1-5.65,5.65A27.50425,27.50425,0,0,1,2.04,30.82C2.01,30.38,2,29.94,2,29.5c0-.43.01-.87.04-1.3A27.49527,27.49527,0,0,1,57,29.5Z"/><path fill="#fff" d="M29.00739,36.00655a2.00089,2.00089,0,1,0-2.00071-2.00089A2.00655,2.00655,0,0,0,29.00739,36.00655Z"/><rect width="21" height="17" x="19" y="25" fill="#ce93d8"/><polygon fill="#ce93d8" points="44 25 15 25 19.5 17 39.5 17 44 25"/><path fill="#fff" d="M29.00739,36.00655a2.00089,2.00089,0,1,0-2.00071-2.00089A2.00655,2.00655,0,0,0,29.00739,36.00655Z"/><path d="M60.83,55.17s-9.23-9.23-9.26-9.25A27.50034,27.50034,0,1,0,2.04,28.2a25.5,25.5,0,1,1,0,2.62A27.50425,27.50425,0,0,0,45.92,51.57C47.83374,52.95348,55.30252,62.46947,58,62A4.02926,4.02926,0,0,0,60.83,55.17Zm-3.41,4.25a2.051,2.051,0,0,1-2.83,0l-7.7-7.7a31.485,31.485,0,0,0,2.83-2.83l7.7,7.7A2.00376,2.00376,0,0,1,57.42,59.42Z" opacity=".1"/><path d="M39.249,16.02533A2,2,0,0,0,37.5058,15.0058h-3.5v-1a2,2,0,0,0-4,0v1h-12.5a2,2,0,0,0-1.74317,1.01953l-4.5,8A2.01382,2.01382,0,0,0,13.0058,27.0058h2v15a2.0001,2.0001,0,0,0,2,2h21a2.0001,2.0001,0,0,0,2-2v-15h2A2.01382,2.01382,0,0,0,43.749,24.02533ZM36.0058,40.0058h-17v-13h17Zm-19.58008-17,2.25-4H30.28326a1.98356,1.98356,0,0,0,3.44507,0h2.60755l2.25,4Z" opacity=".1"/><path fill="#4d4d4d" d="M62.24994,53.76166,54.16223,45.674A29.53982,29.53982,0,1,0,45.674,54.16223l8.0882,8.0882a6.00212,6.00212,0,0,0,8.48779-8.48877ZM29.5058,55.0058a25.5,25.5,0,1,1,25.5-25.5A25.52913,25.52913,0,0,1,29.5058,55.0058Zm29.9165,4.41553a2.05738,2.05738,0,0,1-2.83252.00048L48.88629,51.7179a29.74715,29.74715,0,0,0,2.83185-2.83179l7.70367,7.70367A2.00472,2.00472,0,0,1,59.4223,59.42133Z"/><path fill="#4d4d4d" d="M41.249,16.02533A2,2,0,0,0,39.5058,15.0058h-3.5v-1a2,2,0,0,0-4,0v1h-12.5a2,2,0,0,0-1.74317,1.01953l-4.5,8A2.01382,2.01382,0,0,0,15.0058,27.0058h2v15a2.0001,2.0001,0,0,0,2,2h21a2.0001,2.0001,0,0,0,2-2v-15h2A2.01382,2.01382,0,0,0,45.749,24.02533ZM38.0058,40.0058h-17v-13h17Zm-19.58008-17,2.25-4H32.28326a1.98356,1.98356,0,0,0,3.44507,0h2.60755l2.25,4Z"/></svg>